<svg xmlns="http://www.w3.org/2000/svg" width="32" height="32" viewBox="0 0 32 32" fill="none">
    <path d="M1.00025 5.33335H7.00025C7.35388 5.33335 7.69302 5.47383 7.94306 5.72388C8.19311 5.97392 8.33359 6.31306 8.33359 6.66668V24.6667H5.00025" stroke="white" stroke-width="1.66667" stroke-linecap="round" stroke-linejoin="round"/>
    <path d="M24.3336 24.6667H19.0003" stroke="white" stroke-width="1.66667" stroke-linecap="round" stroke-linejoin="round"/>
    <path d="M15 24.6667H13V6.66667C13 6.31305 13.1405 5.97391 13.3905 5.72386C13.6406 5.47381 13.9797 5.33334 14.3333 5.33334H29.6667C30.0203 5.33334 30.3594 5.47381 30.6095 5.72386C30.8595 5.97391 31 6.31305 31 6.66667V23.3333C31 23.687 30.8595 24.0261 30.6095 24.2761C30.3594 24.5262 30.0203 24.6667 29.6667 24.6667H28.3333" stroke="white" stroke-width="1.66667" stroke-linecap="round" stroke-linejoin="round"/>
    <path d="M3 26.6667C1.89543 26.6667 1 25.7712 1 24.6667C1 23.5621 1.89543 22.6667 3 22.6667C4.10457 22.6667 5 23.5621 5 24.6667C5 25.7712 4.10457 26.6667 3 26.6667Z" stroke="white" stroke-width="1.66667" stroke-linecap="round" stroke-linejoin="round"/>
    <path d="M17 26.6667C15.8954 26.6667 15 25.7712 15 24.6667C15 23.5621 15.8954 22.6667 17 22.6667C18.1046 22.6667 19 23.5621 19 24.6667C19 25.7712 18.1046 26.6667 17 26.6667Z" stroke="white" stroke-width="1.66667" stroke-linecap="round" stroke-linejoin="round"/>
    <path d="M26.3336 26.6667C25.229 26.6667 24.3336 25.7712 24.3336 24.6667C24.3336 23.5621 25.229 22.6667 26.3336 22.6667C27.4382 22.6667 28.3336 23.5621 28.3336 24.6667C28.3336 25.7712 27.4382 26.6667 26.3336 26.6667Z" stroke="white" stroke-width="1.66667" stroke-linecap="round" stroke-linejoin="round"/>
    <path d="M8.33333 6.66666H13V24.6667H8.33333V6.66666Z" stroke="white" stroke-width="1.66667" stroke-linecap="round" stroke-linejoin="round"/>
    <path d="M31 19.3333H27.2667C26.913 19.3333 26.5739 19.1929 26.3239 18.9428C26.0738 18.6928 25.9333 18.3536 25.9333 18V9.33334H31" stroke="white" stroke-width="1.66667" stroke-linecap="round" stroke-linejoin="round"/>
    <path d="M25.9373 18L20 16.6667H13V9.33334H25.9373V18Z" stroke="white" stroke-width="1.66667" stroke-linecap="round" stroke-linejoin="round"/>
    <path d="M1.00025 9.33335H8.33359V16.6667H1.00025" stroke="white" stroke-width="1.66667" stroke-linecap="round" stroke-linejoin="round"/>
    <path d="M20 9.33334V16.6667" stroke="white" stroke-width="1.66667" stroke-linecap="round" stroke-linejoin="round"/>
    <path d="M3.66641 9.33335V16.6667" stroke="white" stroke-width="1.66667" stroke-linecap="round" stroke-linejoin="round"/>
</svg>
