<svg xmlns="http://www.w3.org/2000/svg" width="171" height="110" viewBox="0 0 171 110" fill="none">
    <g clip-path="url(#clip0_117_663)">
        <path d="M87.68 101.385L51.64 80.615C50.5019 79.9614 49.2124 79.6175 47.9 79.6175C46.5876 79.6175 45.2981 79.9614 44.16 80.615L32.99 87.025C31.8536 87.6835 30.5635 88.0302 29.25 88.0302C27.9366 88.0302 26.6465 87.6835 25.51 87.025L4.88004 75.115C4.72802 75.0272 4.55557 74.981 4.38004 74.981C4.2045 74.981 4.03205 75.0272 3.88004 75.115L1.16004 76.695C0.859284 76.8715 0.609895 77.1235 0.436605 77.4261C0.263316 77.7287 0.17215 78.0713 0.17215 78.42C0.17215 78.7687 0.263316 79.1113 0.436605 79.4139C0.609895 79.7165 0.859284 79.9685 1.16004 80.145L25.51 94.205C26.6465 94.8635 27.9366 95.2102 29.25 95.2102C30.5635 95.2102 31.8536 94.8635 32.99 94.205L44.16 87.755C45.2965 87.0965 46.5866 86.7498 47.9 86.7498C49.2135 86.7498 50.5036 87.0965 51.64 87.755L87.64 108.565C88.7778 109.236 90.0727 109.593 91.3933 109.602C92.714 109.611 94.0135 109.27 95.16 108.615L119.52 94.555C119.821 94.3785 120.07 94.1265 120.243 93.8239C120.417 93.5213 120.508 93.1787 120.508 92.83C120.508 92.4813 120.417 92.1387 120.243 91.8361C120.07 91.5335 119.821 91.2815 119.52 91.105L116.79 89.525C116.638 89.4372 116.466 89.391 116.29 89.391C116.114 89.391 115.942 89.4372 115.79 89.525L95.16 101.385C94.0226 102.041 92.7328 102.386 91.42 102.386C90.1072 102.386 88.8175 102.041 87.68 101.385Z" fill="black"/>
        <path d="M165.51 75.115L144.88 87.025C143.745 87.6836 142.457 88.0304 141.145 88.0304C139.833 88.0304 138.545 87.6836 137.41 87.025L116.78 75.115C116.628 75.0272 116.456 74.981 116.28 74.981C116.104 74.981 115.932 75.0272 115.78 75.115L95.16 87.025C94.0255 87.6836 92.7369 88.0304 91.425 88.0304C90.1132 88.0304 88.8246 87.6836 87.69 87.025L51.69 66.215C50.5519 65.5614 49.2624 65.2175 47.95 65.2175C46.6376 65.2175 45.3481 65.5614 44.21 66.215L32.99 72.675C31.8519 73.3286 30.5624 73.6725 29.25 73.6725C27.9376 73.6725 26.6481 73.3286 25.51 72.675L4.88004 60.765C4.72802 60.6772 4.55557 60.631 4.38004 60.631C4.2045 60.631 4.03205 60.6772 3.88004 60.765L1.16004 62.335C0.859284 62.5115 0.609895 62.7635 0.436605 63.0661C0.263316 63.3687 0.17215 63.7113 0.17215 64.06C0.17215 64.4087 0.263316 64.7513 0.436605 65.0539C0.609895 65.3565 0.859284 65.6085 1.16004 65.785L25.51 79.855C26.6481 80.5086 27.9376 80.8525 29.25 80.8525C30.5624 80.8525 31.8519 80.5086 32.99 79.855L44.16 73.395C45.2981 72.7414 46.5876 72.3975 47.9 72.3975C49.2124 72.3975 50.5019 72.7414 51.64 73.395L87.64 94.205C88.7746 94.8636 90.0632 95.2104 91.375 95.2104C92.6869 95.2104 93.9754 94.8636 95.11 94.205L115.74 82.295C115.892 82.2072 116.064 82.161 116.24 82.161C116.416 82.161 116.588 82.2072 116.74 82.295L137.37 94.205C138.505 94.8636 139.793 95.2104 141.105 95.2104C142.417 95.2104 143.705 94.8636 144.84 94.205L169.2 80.145C169.501 79.9685 169.75 79.7165 169.923 79.4139C170.097 79.1113 170.188 78.7687 170.188 78.42C170.188 78.0713 170.097 77.7287 169.923 77.4261C169.75 77.1235 169.501 76.8715 169.2 76.695L166.47 75.115C166.323 75.0345 166.158 74.9923 165.99 74.9923C165.822 74.9923 165.657 75.0345 165.51 75.115Z" fill="black"/>
        <path d="M137.41 72.675L81.46 40.365C81.2087 40.2203 80.9999 40.012 80.8548 39.7609C80.7096 39.5099 80.6332 39.225 80.6332 38.935C80.6332 38.645 80.7096 38.3601 80.8548 38.1091C80.9999 37.858 81.2087 37.6497 81.46 37.505C82.5963 36.8513 83.8842 36.5073 85.195 36.5073C86.5059 36.5073 87.7938 36.8513 88.93 37.505L137.41 65.505C138.546 66.1587 139.834 66.5027 141.145 66.5027C142.456 66.5027 143.744 66.1587 144.88 65.505L169.24 51.445C169.543 51.2692 169.795 51.0168 169.97 50.7132C170.144 50.4096 170.236 50.0654 170.236 49.715C170.236 49.3646 170.144 49.0204 169.97 48.7168C169.795 48.4132 169.543 48.1608 169.24 47.985L88.94 1.615C87.8038 0.961319 86.5159 0.61729 85.205 0.61729C83.8942 0.61729 82.6063 0.961319 81.47 1.615L1.16003 47.975C0.856953 48.1508 0.60538 48.4032 0.430501 48.7068C0.255622 49.0104 0.163574 49.3546 0.163574 49.705C0.163574 50.0554 0.255622 50.3996 0.430501 50.7032C0.60538 51.0068 0.856953 51.2592 1.16003 51.435L25.51 65.495C26.6481 66.1486 27.9376 66.4925 29.25 66.4925C30.5624 66.4925 31.8519 66.1486 32.99 65.495L44.16 59.045C45.2965 58.3865 46.5866 58.0398 47.9 58.0398C49.2135 58.0398 50.5036 58.3865 51.64 59.045L87.64 79.855C88.7763 80.5087 90.0642 80.8527 91.375 80.8527C92.6859 80.8527 93.9738 80.5087 95.11 79.855L115.74 67.935C115.892 67.8472 116.064 67.801 116.24 67.801C116.416 67.801 116.588 67.8472 116.74 67.935L137.37 79.855C138.506 80.5087 139.794 80.8527 141.105 80.8527C142.416 80.8527 143.704 80.5087 144.84 79.855L169.2 65.785C169.501 65.6085 169.75 65.3565 169.923 65.0539C170.097 64.7513 170.188 64.4087 170.188 64.06C170.188 63.7113 170.097 63.3687 169.923 63.0661C169.75 62.7635 169.501 62.5115 169.2 62.335L166.47 60.755C166.318 60.6672 166.146 60.621 165.97 60.621C165.794 60.621 165.622 60.6672 165.47 60.755L144.88 72.675C143.744 73.3287 142.456 73.6727 141.145 73.6727C139.834 73.6727 138.546 73.3287 137.41 72.675Z" fill="black"/>
    </g>
    <defs>
        <clipPath id="clip0_117_663">
            <rect width="170.08" height="108.95" fill="white" transform="translate(0.160034 0.614998)"/>
        </clipPath>
    </defs>
</svg>
